<svg id="Layer_1" data-name="Layer 1" xmlns="http://www.w3.org/2000/svg" xmlns:xlink="http://www.w3.org/1999/xlink" viewBox="0 0 99.05 99.05"><defs><style>.cls-1{stroke:#059e9e;stroke-miterlimit:10;stroke-width:1.99px;fill:url(#radial-gradient);}.cls-2{fill:#fff;}.cls-3{fill:#059e9e;}</style><radialGradient id="radial-gradient" cx="198698.01" cy="-157602.62" r="2719.65" gradientTransform="translate(-3540.86 2887.95) scale(0.02)" gradientUnits="userSpaceOnUse"><stop offset="0" stop-color="#b9f9f9"/><stop offset="1" stop-color="#68dfdf"/></radialGradient></defs><g id="Слой_2" data-name="Слой 2"><g id="Layer_1-2" data-name="Layer 1"><g id="g924"><circle id="path33" class="cls-1" cx="49.52" cy="49.52" r="48.53"/><path id="path905" class="cls-2" d="M48.67,6.5a22.1,22.1,0,0,0-4.11.87c-3.59.91-4.12,1.17-4.12,2,0,.18.56,2.65,1.24,5.5a52.31,52.31,0,0,1,1.12,5.29,15.1,15.1,0,0,1-1.88.57c-1.25.31-1.78.38-1.83.24s-.58-2.54-1.19-5.39A32.81,32.81,0,0,0,36.44,10c-.47-.6-1-.55-5,.41-3.56.86-4.1,1.11-4.1,1.92,0,.23.57,2.82,1.26,5.76s1.23,5.38,1.18,5.43-3.19.82-7,1.7a61.34,61.34,0,0,0-7.19,1.9c-.25.23-.31.48-.25,1a62.91,62.91,0,0,0,2.05,8.08c.39.38,1,.32,3.65-.37a19.51,19.51,0,0,1,3.31-.62,3.5,3.5,0,0,1,2.71,1.16c.42.65,1.82,6.26,4.21,16.94,1.09,4.89,2.33,10.29,2.76,12,.92,3.73,1.06,4.62.82,5.25s-1.44,1.19-4.21,1.75c-1.82.37-2.59.6-2.86.87l-.37.37.32,4.79a46.25,46.25,0,0,0,.49,5.11,1,1,0,0,0,.57.42c.39.1,2.35-.33,10.42-2.26,2.06-.49,3.77-.87,3.81-.83s.64,2.58,1.36,5.69c.88,3.82,1.4,5.74,1.62,6a1.15,1.15,0,0,0,.61.31,66.69,66.69,0,0,0,8-2.09,1.11,1.11,0,0,0,.32-.68c0-.22-.57-2.76-1.26-5.65S52.44,79,52.48,78.86A10.83,10.83,0,0,1,56.2,78c.06.06.52,1.89,1,4.06s1.11,4.68,1.33,5.56c.59,2.33.43,2.3,5.18,1.17,1.37-.3,2.72-.67,4.05-1.1.41-.34.26-1.36-1-6.79-.68-2.92-1.2-5.34-1.16-5.41a4.78,4.78,0,0,1,1.19-.41,32.34,32.34,0,0,0,11.85-6c3.2-2.67,4.57-5.37,5.16-10.16a23.43,23.43,0,0,0-1.29-10,12.76,12.76,0,0,0-10.22-8c-1.11-.11-1.47,0-.58-.93a11.46,11.46,0,0,0,2.05-4.62,14.87,14.87,0,0,0-1.33-9.94,18.92,18.92,0,0,0-4.83-5.1C65,18.62,61,17.8,56.44,18.05c-1.38.08-2.87.15-3.31.16h-.79l-1.29-5.42a58.33,58.33,0,0,0-1.58-5.87.83.83,0,0,0-.85-.43ZM51,29.6a11.82,11.82,0,0,1,3.45.37,9.05,9.05,0,0,1,3,1.67A6.8,6.8,0,0,1,59,36.39a8.07,8.07,0,0,1-2.26,3.71c-1.65,1.57-5.36,3.15-9.66,4.12-2.22.5-2.67.54-2.79.22-.35-.91-2.92-13-2.8-13.1a36.44,36.44,0,0,1,5.84-1.47A22.5,22.5,0,0,1,51,29.6Zm8.52,21.64a8.06,8.06,0,0,1,5.41,1.5,4,4,0,0,1,1.85,2,10.23,10.23,0,0,1,.76,2.41,4.87,4.87,0,0,1-1.21,4.19c-1.45,2-3.61,3.24-8,4.76-1.86.64-7.79,2.23-8.31,2.23a1.87,1.87,0,0,1-.27-.41c-.28-.67-3.25-14.14-3.17-14.37s5-1.48,8-1.93a37.09,37.09,0,0,1,4.71-.39Z" transform="translate(0.13 0)"/><path id="path907" class="cls-3" d="M48.67,5.51a20.74,20.74,0,0,0-4.35.89,19.59,19.59,0,0,0-3.59,1.1,2.25,2.25,0,0,0-1,.75,2,2,0,0,0-.32,1.09.73.73,0,0,0,.05.35.85.85,0,0,0,.07.39l.27,1.23c.23,1,.54,2.33.88,3.76s.64,2.72.84,3.66c.06.28.11.52.15.73l-1,.28-.81.18c0-.24-.11-.53-.19-.87-.22-1-.5-2.29-.81-3.72h0c-.37-1.7-.68-3-.94-4q-.18-.72-.33-1.17a1.82,1.82,0,0,0-.38-.82,2,2,0,0,0-.86-.65,2.83,2.83,0,0,0-1.19-.11,28.63,28.63,0,0,0-4,.81,18.37,18.37,0,0,0-3.57,1,2.2,2.2,0,0,0-1,.75,2,2,0,0,0-.32,1.09,1.09,1.09,0,0,0,0,.36,3,3,0,0,0,.08.42c.07.33.16.77.28,1.3.23,1,.55,2.43.9,3.91s.65,2.8.86,3.77c.06.27.11.5.15.71l-1.2.29c-1.25.31-3,.72-4.86,1.16h0c-2.12.5-3.87.93-5.13,1.26-.63.17-1.14.31-1.52.43l-.48.16a.81.81,0,0,0-.5.28h0a1.73,1.73,0,0,0-.55.89,2.41,2.41,0,0,0,0,1c.1.9.55,2.75,1,4.59.24.91.47,1.8.67,2.48.1.34.19.63.27.86s.07.21.11.31,0,.14.28.43h0a2,2,0,0,0,.83.47,3,3,0,0,0,.95,0,22.9,22.9,0,0,0,2.82-.62c.64-.16,1.33-.32,1.9-.42s1.1-.17,1.16-.17h0a3.51,3.51,0,0,1,1.86.7l.12.28c.07.21.16.51.28.89.22.76.5,1.85.85,3.25C28.1,44,29,48.09,30.24,53.43c1.09,4.89,2.33,10.28,2.76,12s.72,3,.83,3.71.07.84,0,1-.06.14-.62.37a17.62,17.62,0,0,1-2.85.76c-.93.18-1.59.34-2.11.49a2.63,2.63,0,0,0-1.26.65l-.69.69.34,5.23h0c.09,1.33.19,2.56.28,3.5A7.82,7.82,0,0,0,27.05,83c0,.3,0,.28.06.39a.69.69,0,0,0,.14.45h0a1.68,1.68,0,0,0,1.21.93,2.33,2.33,0,0,0,1.05,0c.4-.06.95-.17,1.73-.34,1.56-.34,4.07-.93,8.11-1.89,1-.25,2-.47,2.64-.61h.21c0,.23.11.49.19.79l.93,4c.44,1.91.79,3.35,1.07,4.36.14.5.25.9.36,1.2a2.41,2.41,0,0,0,.16.42,1.2,1.2,0,0,0,.29.45,2.28,2.28,0,0,0,.56.4,1.43,1.43,0,0,0,.76.21,4.57,4.57,0,0,0,.73-.1l1-.22c.78-.18,1.73-.42,2.68-.67s1.87-.5,2.59-.71l.92-.29.32-.12c.1,0,.14,0,.42-.25h0A1.7,1.7,0,0,0,55.83,90a1,1,0,0,0,0-.36,1,1,0,0,0-.07-.41c-.07-.32-.16-.75-.28-1.27-.23-1-.55-2.39-.9-3.84h0c-.34-1.44-.65-2.77-.86-3.75l-.18-.87.95-.24.93-.19a2.33,2.33,0,0,0,.11.46c.19.72.43,1.72.68,2.8.51,2.17,1.11,4.67,1.34,5.58A8,8,0,0,0,58,89.39a2.12,2.12,0,0,0,1.32,1.11c1.17.26,2.23-.15,4.6-.72,1.06-.25,2-.5,2.79-.7.37-.1.69-.19.93-.27l.32-.11c.09,0,.1,0,.41-.22h0a1.79,1.79,0,0,0,.55-1.1,5,5,0,0,0-.08-1.29c-.15-1.06-.51-2.67-1.14-5.39-.34-1.45-.64-2.78-.85-3.75-.06-.3-.12-.56-.17-.79l.34-.1h0a33,33,0,0,0,12.35-6.2c3.35-2.79,4.91-5.87,5.52-10.8A24,24,0,0,0,83.49,48.6,13.77,13.77,0,0,0,73,40a13.52,13.52,0,0,0,1.79-4.4A15.65,15.65,0,0,0,73.32,25a18.94,18.94,0,0,0-5.15-5.44c-2.87-1.91-7-2.72-11.77-2.46-1.36.08-2.86.15-3.26.16L52,12.62c-.36-1.5-.71-2.91-1-4-.14-.54-.27-1-.38-1.34,0-.17-.1-.32-.14-.44a1.46,1.46,0,0,0-.19-.42h0a1.89,1.89,0,0,0-.66-.63,2,2,0,0,0-1-.24Zm0,2h0a1.86,1.86,0,0,0,.1.33c.1.31.23.75.37,1.27.28,1.05.64,2.45,1,3.93l1.47,6.2h1.6c.49,0,1.94-.08,3.33-.15h0c4.45-.25,8.23.57,10.56,2.13A19.4,19.4,0,0,1,71.61,26a14.05,14.05,0,0,1,1.23,9.24A10.69,10.69,0,0,1,71,39.41a3.18,3.18,0,0,0-.54.67,1.09,1.09,0,0,0-.19.59,1.31,1.31,0,0,0,.39.93,1.19,1.19,0,0,0,.9.31h.69a11.88,11.88,0,0,1,9.38,7.4,22.91,22.91,0,0,1,1.24,9.51c-.57,4.65-1.76,7-4.82,9.51a31.19,31.19,0,0,1-11.48,5.78c-.33.08-.63.19-.88.27l-.33.13-.18.09c-.07,0-.16,0-.38.37s-.15.46-.15.52a.24.24,0,0,0,0,.12.38.38,0,0,0,0,.15,1,1,0,0,0,.06.38c.06.15.14.69.25,1.19.21,1,.51,2.33.85,3.78.64,2.71,1,4.33,1.12,5.23a5,5,0,0,1,.06.57l-.75.21c-.72.2-1.69.45-2.73.69a30.7,30.7,0,0,1-3.66.71h0a8.28,8.28,0,0,1-.33-1.15h0c-.21-.87-.81-3.38-1.32-5.54-.26-1.09-.5-2.1-.69-2.84-.09-.37-.17-.68-.24-.91l-.08-.29v-.12c0-.06.06,0-.19-.32h0a.79.79,0,0,0-.69-.38H56l-.55.06c-.39.06-.85.15-1.32.26s-.93.22-1.31.34l-.52.18-.26.14c-.1.06-.28.09-.45.54s-.07.39-.07.46v.18a1,1,0,0,0,.07.39,7.4,7.4,0,0,0,.25,1.23c.21,1,.52,2.34.87,3.81s.66,2.79.89,3.8c.12.5.21.93.27,1.24a.42.42,0,0,0,0,.26h0c-.19.07-.48.17-.83.27-.69.2-1.61.45-2.54.69s-1.87.49-2.62.67l-.93.19H46.8v-.1c-.08-.23-.19-.59-.32-1.08q-.4-1.44-1-4.29c-.36-1.55-.69-3-.94-4-.13-.52-.23-1-.3-1.25s-.07-.26-.1-.35v-.29s0-.08-.2-.29h0c-.45-.44-.57-.28-.65-.29h-.56l-.85.18-2.68.61c-4,1-6.54,1.56-8.07,1.89-.77.17-1.29.27-1.62.32h-.17v-.06c0-.26-.08-.64-.12-1.1-.09-.91-.19-2.12-.27-3.44l-.29-4.33.05-.06c-.09.1.05,0,.44-.15A14,14,0,0,1,31,73.16h0a16.49,16.49,0,0,0,3.22-.87A2.8,2.8,0,0,0,36,70.78h0a3.87,3.87,0,0,0,.08-2c-.14-.84-.41-2-.87-3.88-.42-1.69-1.66-7.12-2.76-12q-1.8-8-2.84-12.26c-.35-1.41-.64-2.52-.88-3.33-.11-.4-.22-.73-.31-1a3,3,0,0,0-.31-.69h0A4.11,4.11,0,0,0,24.53,34h0a11,11,0,0,0-1.53.2c-.62.12-1.34.28-2,.46a19.9,19.9,0,0,1-2.52.56h-.12c-.06-.18-.13-.41-.21-.7-.19-.64-.42-1.51-.65-2.41-.46-1.81-.91-3.86-1-4.32v-.13l.19-.06c.33-.11.82-.24,1.44-.41,1.23-.32,3-.75,5.07-1.24,1.89-.44,3.62-.86,4.89-1.17l1.51-.37.45-.12h.24s0,.1.35-.23a.7.7,0,0,0,.29-.63V23.1l-.06-.38c-.06-.3-.14-.71-.25-1.21-.21-1-.52-2.34-.87-3.81s-.66-2.84-.89-3.88c-.11-.52-.21-1-.27-1.26a1.26,1.26,0,0,0-.07-.36h0l.13-.07a23.42,23.42,0,0,1,3.2-.92,32.39,32.39,0,0,1,3.65-.76h.29l.09.21c.08.24.18.6.3,1.06.24.92.55,2.24.92,3.94.31,1.42.59,2.74.81,3.72l.27,1.19.08.35a.86.86,0,0,0,.06.23h0a1.08,1.08,0,0,0,.51.6.85.85,0,0,0,.44.14,1.88,1.88,0,0,0,.58,0,12.59,12.59,0,0,0,1.48-.32h0c.5-.12,1-.25,1.32-.36l.47-.15.19-.08c.07,0,.1,0,.36-.24h0a.74.74,0,0,0,.29-.56V19.8a1.11,1.11,0,0,0-.06-.39c-.06-.15-.13-.69-.24-1.18-.2-1-.5-2.28-.84-3.71s-.66-2.75-.88-3.74c-.11-.49-.2-.9-.26-1.2a.61.61,0,0,0-.06-.3l.13-.08A24.14,24.14,0,0,1,45,8.2a27.9,27.9,0,0,1,3.86-.83ZM42.35,19.22h-.06l0,0Zm-13,3.28h-.08s0,0,.05,0ZM16.18,27.86C16,28,16.11,27.86,16.18,27.86Zm34.8.71a23.11,23.11,0,0,0-3.81.29h0c-1,.17-2.43.49-3.64.79-.61.16-1.17.31-1.6.44l-.56.18-.23.1a.74.74,0,0,0-.36.24h0c-.44.44-.28.56-.29.64a.43.43,0,0,0,0,.16.6.6,0,0,0,0,.19,1.1,1.1,0,0,0,.07.44c.06.36.15.85.27,1.44.23,1.17.55,2.72.89,4.3s.68,3.17,1,4.44c.15.63.27,1.18.38,1.61a6.46,6.46,0,0,0,.26.93h0a1.47,1.47,0,0,0,.77.76,2.15,2.15,0,0,0,.84.08,20.77,20.77,0,0,0,2.33-.44c4.4-1,8.18-2.52,10.12-4.37h0A8.6,8.6,0,0,0,60,36.54h0a6.24,6.24,0,0,0-.35-3,5.94,5.94,0,0,0-1.51-2.63A9.57,9.57,0,0,0,54.76,29,12,12,0,0,0,51,28.57Zm0,2a12.32,12.32,0,0,1,3.14.32h0a8.32,8.32,0,0,1,2.65,1.47A5.87,5.87,0,0,1,58,36.19h0a7.89,7.89,0,0,1-2,3.17c-1.35,1.28-5,2.93-9.18,3.87-.84.19-1.43.31-1.78.37L45,43.37c-.1-.41-.23-1-.37-1.59-.29-1.25-.64-2.84-1-4.42s-.66-3.11-.88-4.27c-.09-.44-.16-.82-.22-1.12.38-.12.88-.25,1.43-.39,1.17-.29,2.57-.61,3.48-.76a23.9,23.9,0,0,1,3.49-.26Zm-8.93,1.58h0Zm-23.8,3.42c.09.11,0,.09,0,.07a.43.43,0,0,1,0,0Zm53.4,4.25h0ZM59.5,50.22h-.25a37.32,37.32,0,0,0-4.85.4h0c-1.53.24-3.5.65-5.14,1-.81.19-1.54.39-2.09.56a4.56,4.56,0,0,0-.71.24,1.05,1.05,0,0,0-.3.15c-.11.06-.3,0-.5.56h0c-.12.31-.07.33-.07.39v.31a3.16,3.16,0,0,0,.09.5c.07.4.18,1,.32,1.61.27,1.31.64,3,1,4.78s.78,3.5,1.1,4.87c.16.68.3,1.27.41,1.71.05.22.1.41.14.56a2,2,0,0,0,.13.39h0a3.09,3.09,0,0,0,.23.44,1.3,1.3,0,0,0,.31.31.78.78,0,0,0,.76.33,2.28,2.28,0,0,0,.63-.09l.86-.2c.67-.16,1.52-.38,2.42-.62,1.79-.48,3.72-1,4.72-1.38h0c4.46-1.53,6.87-2.93,8.47-5.11h0A6.16,6.16,0,0,0,68.51,57h0a10.39,10.39,0,0,0-.84-2.69h0a5.29,5.29,0,0,0-2.2-2.38h0a9.37,9.37,0,0,0-6-1.68Zm0,2h0a6.77,6.77,0,0,1,4.87,1.35h0c1.11.73,1,.65,1.5,1.59a10.44,10.44,0,0,1,.67,2.14c.23,1.41.08,2-1,3.44-1.29,1.75-3.21,2.93-7.53,4.4-.86.3-2.82.87-4.59,1.34-.88.24-1.72.46-2.37.61l-.46.11a.5.5,0,0,0-.09-.33l-.4-1.68c-.31-1.36-.71-3.11-1.09-4.84s-.76-3.47-1-4.77c-.12-.58-.22-1.06-.29-1.43h.07c.49-.15,1.19-.34,2-.53,1.59-.39,3.54-.79,5-1a40.83,40.83,0,0,1,4.56-.38h.24ZM47.32,54.3a.26.26,0,0,1-.12.05h0ZM66.67,75.56Zm-.38.73h0Zm-11,2.08h0v0Zm-1.82.45s0,0,0,.12v-.12ZM29.19,83.07C29.26,83.21,29.19,83.13,29.19,83.07Zm38.19,3.69Zm-13.22,3h0l.07-.05Zm-7.35,2Zm0,.07Z" transform="translate(0.13 0)"/></g></g></g></svg>